<svg xmlns="http://www.w3.org/2000/svg" xmlns:xlink="http://www.w3.org/1999/xlink" width="500" zoomAndPan="magnify" viewBox="0 0 375 374.999991" height="500" preserveAspectRatio="xMidYMid meet" version="1.0"><defs><g/><clipPath id="e99e01969e"><path d="M 59.128906 216 L 63 216 L 63 226 L 59.128906 226 Z M 59.128906 216 " clip-rule="nonzero"/></clipPath><clipPath id="8e730b079f"><path d="M 87 216 L 90.300781 216 L 90.300781 226 L 87 226 Z M 87 216 " clip-rule="nonzero"/></clipPath><clipPath id="5e2f502a1a"><path d="M 61 182.25 L 71 182.25 L 71 186 L 61 186 Z M 61 182.25 " clip-rule="nonzero"/></clipPath><clipPath id="6c70a7cac1"><path d="M 61 210 L 71 210 L 71 213.75 L 61 213.75 Z M 61 210 " clip-rule="nonzero"/></clipPath><clipPath id="6134ff1c54"><path d="M 59.128906 135 L 63 135 L 63 145 L 59.128906 145 Z M 59.128906 135 " clip-rule="nonzero"/></clipPath><clipPath id="1c53ddd5ce"><path d="M 87 135 L 90.628906 135 L 90.628906 145 L 87 145 Z M 87 135 " clip-rule="nonzero"/></clipPath><clipPath id="7b55e591d8"><path d="M 63 132 L 69 132 L 69 146.785156 L 63 146.785156 Z M 63 132 " clip-rule="nonzero"/></clipPath><clipPath id="1af545c6cb"><path d="M 80 132 L 87 132 L 87 146.785156 L 80 146.785156 Z M 80 132 " clip-rule="nonzero"/></clipPath><clipPath id="2e637943d5"><path d="M 61 147.355469 L 71 147.355469 L 71 151 L 61 151 Z M 61 147.355469 " clip-rule="nonzero"/></clipPath><clipPath id="e6a7288560"><path d="M 61 175 L 71 175 L 71 178.855469 L 61 178.855469 Z M 61 175 " clip-rule="nonzero"/></clipPath><clipPath id="6b29fa53b0"><path d="M 317 135 L 320.800781 135 L 320.800781 145 L 317 145 Z M 317 135 " clip-rule="nonzero"/></clipPath><clipPath id="9f323d2a74"><path d="M 289.628906 135 L 293 135 L 293 145 L 289.628906 145 Z M 289.628906 135 " clip-rule="nonzero"/></clipPath><clipPath id="66789c0156"><path d="M 311 132 L 317 132 L 317 146.78125 L 311 146.78125 Z M 311 132 " clip-rule="nonzero"/></clipPath><clipPath id="b7c450eb8d"><path d="M 293 132 L 299 132 L 299 146.78125 L 293 146.78125 Z M 293 132 " clip-rule="nonzero"/></clipPath><clipPath id="e3f856cf36"><path d="M 309 175 L 319 175 L 319 178.523438 L 309 178.523438 Z M 309 175 " clip-rule="nonzero"/></clipPath><clipPath id="927d46e801"><path d="M 309 147.023438 L 319 147.023438 L 319 151 L 309 151 Z M 309 147.023438 " clip-rule="nonzero"/></clipPath><clipPath id="a5ebcbc102"><path d="M 306 169 L 320.984375 169 L 320.984375 175 L 306 175 Z M 306 169 " clip-rule="nonzero"/></clipPath><clipPath id="2bf20bdc1c"><path d="M 306 151 L 320.984375 151 L 320.984375 157 L 306 157 Z M 306 151 " clip-rule="nonzero"/></clipPath><clipPath id="a538444201"><path d="M 289.628906 216 L 293 216 L 293 226 L 289.628906 226 Z M 289.628906 216 " clip-rule="nonzero"/></clipPath><clipPath id="08c1b59797"><path d="M 317 216 L 320.800781 216 L 320.800781 226 L 317 226 Z M 317 216 " clip-rule="nonzero"/></clipPath><clipPath id="3779b5d8ff"><path d="M 309 210 L 319 210 L 319 213.417969 L 309 213.417969 Z M 309 210 " clip-rule="nonzero"/></clipPath><clipPath id="b79b5245ab"><path d="M 306 204 L 320.984375 204 L 320.984375 210 L 306 210 Z M 306 204 " clip-rule="nonzero"/></clipPath><clipPath id="42d51c652f"><path d="M 306 186 L 320.984375 186 L 320.984375 192 L 306 192 Z M 306 186 " clip-rule="nonzero"/></clipPath></defs><g fill="#2b7a7b" fill-opacity="1"><g transform="translate(77.276792, 201.749987)"><g><path d="M 28.296875 -43.46875 L 28.296875 -34.78125 L 13.0625 -34.78125 L 13.0625 -26.140625 L 27.140625 -26.140625 L 27.140625 -17.4375 L 13.0625 -17.4375 L 13.0625 0 L 3.15625 0 L 3.15625 -43.46875 Z M 28.296875 -43.46875 "/></g></g></g><g fill="#2b7a7b" fill-opacity="1"><g transform="translate(105.938575, 201.749987)"><g><path d="M 4.046875 -42.09375 C 5.140625 -43.1875 6.441406 -43.734375 7.953125 -43.734375 C 9.460938 -43.734375 10.757812 -43.1875 11.84375 -42.09375 C 12.9375 -41.007812 13.484375 -39.710938 13.484375 -38.203125 C 13.484375 -36.691406 12.9375 -35.390625 11.84375 -34.296875 C 10.757812 -33.210938 9.460938 -32.671875 7.953125 -32.671875 C 6.441406 -32.671875 5.140625 -33.210938 4.046875 -34.296875 C 2.960938 -35.390625 2.421875 -36.691406 2.421875 -38.203125 C 2.421875 -39.710938 2.960938 -41.007812 4.046875 -42.09375 Z M 3.15625 -27.03125 L 3.15625 0 L 12.484375 0 L 12.484375 -27.03125 Z M 3.15625 -27.03125 "/></g></g></g><g fill="#2b7a7b" fill-opacity="1"><g transform="translate(120.638167, 201.749987)"><g><path d="M 4.734375 -27.03125 L 4.734375 -37.09375 L 14.0625 -37.09375 L 14.0625 -27.03125 L 19.75 -27.03125 L 19.75 -19.921875 L 14.0625 -19.921875 L 14.0625 -11.328125 C 14.0625 -8.835938 14.765625 -7.59375 16.171875 -7.59375 C 16.523438 -7.59375 16.894531 -7.660156 17.28125 -7.796875 C 17.664062 -7.941406 17.960938 -8.082031 18.171875 -8.21875 L 18.5 -8.4375 L 20.8125 -0.890625 C 18.8125 0.234375 16.53125 0.796875 13.96875 0.796875 C 12.207031 0.796875 10.691406 0.488281 9.421875 -0.125 C 8.160156 -0.738281 7.203125 -1.5625 6.546875 -2.59375 C 5.898438 -3.632812 5.4375 -4.726562 5.15625 -5.875 C 4.875 -7.019531 4.734375 -8.238281 4.734375 -9.53125 L 4.734375 -19.921875 L 0.84375 -19.921875 L 0.84375 -27.03125 Z M 4.734375 -27.03125 "/></g></g></g><g fill="#2b7a7b" fill-opacity="1"><g transform="translate(140.237695, 201.749987)"><g><path d="M 39.09375 0 L 37.046875 -25.765625 L 36.78125 -25.765625 L 27.875 -0.265625 L 21.96875 -0.265625 L 13.0625 -25.765625 L 12.796875 -25.765625 L 10.75 0 L 0.84375 0 L 4.734375 -43.46875 L 15.28125 -43.46875 L 24.921875 -18.390625 L 34.5625 -43.46875 L 45.09375 -43.46875 L 49 0 Z M 39.09375 0 "/></g></g></g><g fill="#2b7a7b" fill-opacity="1"><g transform="translate(188.868044, 201.749987)"><g><path d="M 5 -3.34375 C 2.476562 -6.101562 1.21875 -9.484375 1.21875 -13.484375 C 1.21875 -17.492188 2.476562 -20.882812 5 -23.65625 C 7.53125 -26.425781 10.742188 -27.8125 14.640625 -27.8125 C 18.222656 -27.8125 21.175781 -26.691406 23.5 -24.453125 L 23.5 -27.03125 L 32.828125 -27.03125 L 32.828125 0 L 23.609375 0 L 23.609375 -3.0625 L 23.5 -3.0625 C 21.175781 -0.488281 18.222656 0.796875 14.640625 0.796875 C 10.742188 0.796875 7.53125 -0.582031 5 -3.34375 Z M 12.921875 -18.0625 C 11.710938 -16.875 11.109375 -15.347656 11.109375 -13.484375 C 11.109375 -11.628906 11.6875 -10.113281 12.84375 -8.9375 C 14.007812 -7.757812 15.539062 -7.171875 17.4375 -7.171875 C 19.257812 -7.171875 20.757812 -7.765625 21.9375 -8.953125 C 23.113281 -10.148438 23.703125 -11.660156 23.703125 -13.484375 C 23.703125 -15.347656 23.097656 -16.875 21.890625 -18.0625 C 20.679688 -19.257812 19.195312 -19.859375 17.4375 -19.859375 C 15.644531 -19.859375 14.140625 -19.257812 12.921875 -18.0625 Z M 12.921875 -18.0625 "/></g></g></g><g fill="#2b7a7b" fill-opacity="1"><g transform="translate(223.641578, 201.749987)"><g><path d="M 4.734375 -27.03125 L 4.734375 -37.09375 L 14.0625 -37.09375 L 14.0625 -27.03125 L 19.75 -27.03125 L 19.75 -19.921875 L 14.0625 -19.921875 L 14.0625 -11.328125 C 14.0625 -8.835938 14.765625 -7.59375 16.171875 -7.59375 C 16.523438 -7.59375 16.894531 -7.660156 17.28125 -7.796875 C 17.664062 -7.941406 17.960938 -8.082031 18.171875 -8.21875 L 18.5 -8.4375 L 20.8125 -0.890625 C 18.8125 0.234375 16.53125 0.796875 13.96875 0.796875 C 12.207031 0.796875 10.691406 0.488281 9.421875 -0.125 C 8.160156 -0.738281 7.203125 -1.5625 6.546875 -2.59375 C 5.898438 -3.632812 5.4375 -4.726562 5.15625 -5.875 C 4.875 -7.019531 4.734375 -8.238281 4.734375 -9.53125 L 4.734375 -19.921875 L 0.84375 -19.921875 L 0.84375 -27.03125 Z M 4.734375 -27.03125 "/></g></g></g><g fill="#2b7a7b" fill-opacity="1"><g transform="translate(243.241107, 201.749987)"><g><path d="M 17.546875 -20.171875 C 15.785156 -20.171875 14.269531 -19.519531 13 -18.21875 C 11.738281 -16.925781 11.109375 -15.367188 11.109375 -13.546875 C 11.109375 -11.679688 11.738281 -10.097656 13 -8.796875 C 14.269531 -7.492188 15.785156 -6.84375 17.546875 -6.84375 C 18.390625 -6.84375 19.1875 -6.945312 19.9375 -7.15625 C 20.695312 -7.375 21.253906 -7.585938 21.609375 -7.796875 L 22.078125 -8.109375 L 25.234375 -1.640625 C 24.992188 -1.460938 24.648438 -1.238281 24.203125 -0.96875 C 23.765625 -0.707031 22.765625 -0.347656 21.203125 0.109375 C 19.640625 0.566406 17.960938 0.796875 16.171875 0.796875 C 12.203125 0.796875 8.71875 -0.597656 5.71875 -3.390625 C 2.71875 -6.191406 1.21875 -9.539062 1.21875 -13.4375 C 1.21875 -17.375 2.71875 -20.753906 5.71875 -23.578125 C 8.71875 -26.398438 12.203125 -27.8125 16.171875 -27.8125 C 17.960938 -27.8125 19.613281 -27.597656 21.125 -27.171875 C 22.632812 -26.753906 23.707031 -26.335938 24.34375 -25.921875 L 25.234375 -25.296875 L 22.078125 -18.921875 C 20.921875 -19.753906 19.410156 -20.171875 17.546875 -20.171875 Z M 17.546875 -20.171875 "/></g></g></g><g fill="#2b7a7b" fill-opacity="1"><g transform="translate(267.898637, 201.749987)"><g><path d="M 3.15625 0 L 3.15625 -45.3125 L 12.484375 -45.3125 L 12.484375 -24.1875 L 12.59375 -24.1875 C 15.019531 -26.601562 17.601562 -27.8125 20.34375 -27.8125 C 21.675781 -27.8125 23 -27.632812 24.3125 -27.28125 C 25.632812 -26.9375 26.898438 -26.394531 28.109375 -25.65625 C 29.316406 -24.914062 30.296875 -23.867188 31.046875 -22.515625 C 31.804688 -21.171875 32.1875 -19.601562 32.1875 -17.8125 L 32.1875 0 L 22.859375 0 L 22.859375 -15.28125 C 22.859375 -16.6875 22.410156 -17.914062 21.515625 -18.96875 C 20.617188 -20.019531 19.453125 -20.546875 18.015625 -20.546875 C 16.609375 -20.546875 15.332031 -20 14.1875 -18.90625 C 13.050781 -17.820312 12.484375 -16.613281 12.484375 -15.28125 L 12.484375 0 Z M 3.15625 0 "/></g></g></g><g clip-path="url(#e99e01969e)"><path fill="#2b7a7b" d="M 62.246094 225.644531 L 60.167969 225.644531 C 59.128906 225.644531 59.128906 224.964844 59.128906 224.605469 L 59.128906 217.332031 C 59.128906 216.972656 59.128906 216.292969 60.167969 216.292969 L 62.246094 216.292969 Z M 62.246094 225.644531 " fill-opacity="1" fill-rule="nonzero"/></g><path fill="#2b7a7b" d="M 69.519531 223.566406 L 79.910156 223.566406 L 79.910156 219.410156 L 69.519531 219.410156 Z M 69.519531 223.566406 " fill-opacity="1" fill-rule="nonzero"/><g clip-path="url(#8e730b079f)"><path fill="#2b7a7b" d="M 89.261719 225.644531 L 87.183594 225.644531 L 87.183594 216.292969 L 89.261719 216.292969 C 90.300781 216.292969 90.300781 216.972656 90.300781 217.332031 L 90.300781 224.605469 C 90.300781 224.964844 90.300781 225.644531 89.261719 225.644531 Z M 89.261719 225.644531 " fill-opacity="1" fill-rule="nonzero"/></g><path fill="#2b7a7b" d="M 68.480469 223.308594 L 68.480469 227.722656 C 68.480469 228.082031 68.480469 228.761719 67.441406 228.761719 L 64.324219 228.761719 C 63.285156 228.761719 63.285156 228.082031 63.285156 227.722656 L 63.285156 215.253906 C 63.285156 214.894531 63.285156 214.214844 64.324219 214.214844 L 67.441406 214.214844 C 68.480469 214.214844 68.480469 214.894531 68.480469 215.253906 Z M 68.480469 223.308594 " fill-opacity="1" fill-rule="nonzero"/><path fill="#2b7a7b" d="M 86.144531 216.8125 L 86.144531 227.722656 C 86.144531 228.082031 86.144531 228.761719 85.105469 228.761719 L 81.902344 228.761719 C 80.949219 228.761719 80.949219 228.082031 80.949219 227.722656 L 80.949219 215.253906 C 80.949219 214.894531 80.949219 214.214844 81.902344 214.214844 L 85.105469 214.214844 C 86.144531 214.214844 86.144531 214.894531 86.144531 215.253906 Z M 86.144531 216.8125 " fill-opacity="1" fill-rule="nonzero"/><g clip-path="url(#5e2f502a1a)"><path fill="#2b7a7b" d="M 70.59375 185.367188 L 70.59375 183.289062 C 70.59375 182.25 69.914062 182.25 69.554688 182.25 L 62.28125 182.25 C 61.921875 182.25 61.242188 182.25 61.242188 183.289062 L 61.242188 185.367188 Z M 70.59375 185.367188 " fill-opacity="1" fill-rule="nonzero"/></g><path fill="#2b7a7b" d="M 68.515625 192.640625 L 68.515625 203.03125 L 64.359375 203.03125 L 64.359375 192.640625 Z M 68.515625 192.640625 " fill-opacity="1" fill-rule="nonzero"/><g clip-path="url(#6c70a7cac1)"><path fill="#2b7a7b" d="M 70.59375 212.382812 L 70.59375 210.304688 L 61.242188 210.304688 L 61.242188 212.382812 C 61.242188 213.421875 61.921875 213.421875 62.28125 213.421875 L 69.554688 213.421875 C 69.914062 213.421875 70.59375 213.421875 70.59375 212.382812 Z M 70.59375 212.382812 " fill-opacity="1" fill-rule="nonzero"/></g><path fill="#2b7a7b" d="M 68.257812 191.601562 L 72.671875 191.601562 C 73.03125 191.601562 73.710938 191.601562 73.710938 190.5625 L 73.710938 187.445312 C 73.710938 186.40625 73.03125 186.40625 72.671875 186.40625 L 60.203125 186.40625 C 59.84375 186.40625 59.164062 186.40625 59.164062 187.445312 L 59.164062 190.5625 C 59.164062 191.601562 59.84375 191.601562 60.203125 191.601562 Z M 68.257812 191.601562 " fill-opacity="1" fill-rule="nonzero"/><path fill="#2b7a7b" d="M 61.761719 209.265625 L 72.671875 209.265625 C 73.03125 209.265625 73.710938 209.265625 73.710938 208.226562 L 73.710938 205.023438 C 73.710938 204.070312 73.03125 204.070312 72.671875 204.070312 L 60.203125 204.070312 C 59.84375 204.070312 59.164062 204.070312 59.164062 205.023438 L 59.164062 208.226562 C 59.164062 209.265625 59.84375 209.265625 60.203125 209.265625 Z M 61.761719 209.265625 " fill-opacity="1" fill-rule="nonzero"/><g clip-path="url(#6134ff1c54)"><path fill="#2b7a7b" d="M 62.246094 135.128906 L 60.167969 135.128906 C 59.128906 135.128906 59.128906 135.808594 59.128906 136.167969 L 59.128906 143.441406 C 59.128906 143.800781 59.128906 144.480469 60.167969 144.480469 L 62.246094 144.480469 Z M 62.246094 135.128906 " fill-opacity="1" fill-rule="nonzero"/></g><path fill="#2b7a7b" d="M 69.519531 137.207031 L 79.910156 137.207031 L 79.910156 141.363281 L 69.519531 141.363281 Z M 69.519531 137.207031 " fill-opacity="1" fill-rule="nonzero"/><g clip-path="url(#1c53ddd5ce)"><path fill="#2b7a7b" d="M 89.261719 135.128906 L 87.183594 135.128906 L 87.183594 144.480469 L 89.261719 144.480469 C 90.300781 144.480469 90.300781 143.800781 90.300781 143.441406 L 90.300781 136.167969 C 90.300781 135.808594 90.300781 135.128906 89.261719 135.128906 Z M 89.261719 135.128906 " fill-opacity="1" fill-rule="nonzero"/></g><g clip-path="url(#7b55e591d8)"><path fill="#2b7a7b" d="M 68.480469 137.46875 L 68.480469 133.050781 C 68.480469 132.691406 68.480469 132.011719 67.441406 132.011719 L 64.324219 132.011719 C 63.285156 132.011719 63.285156 132.691406 63.285156 133.050781 L 63.285156 145.519531 C 63.285156 145.878906 63.285156 146.558594 64.324219 146.558594 L 67.441406 146.558594 C 68.480469 146.558594 68.480469 145.878906 68.480469 145.519531 Z M 68.480469 137.46875 " fill-opacity="1" fill-rule="nonzero"/></g><g clip-path="url(#1af545c6cb)"><path fill="#2b7a7b" d="M 86.144531 143.960938 L 86.144531 133.050781 C 86.144531 132.691406 86.144531 132.011719 85.105469 132.011719 L 81.902344 132.011719 C 80.949219 132.011719 80.949219 132.691406 80.949219 133.050781 L 80.949219 145.519531 C 80.949219 145.878906 80.949219 146.558594 81.902344 146.558594 L 85.105469 146.558594 C 86.144531 146.558594 86.144531 145.878906 86.144531 145.519531 Z M 86.144531 143.960938 " fill-opacity="1" fill-rule="nonzero"/></g><g clip-path="url(#2e637943d5)"><path fill="#2b7a7b" d="M 70.59375 150.472656 L 70.59375 148.394531 C 70.59375 147.355469 69.914062 147.355469 69.554688 147.355469 L 62.28125 147.355469 C 61.921875 147.355469 61.242188 147.355469 61.242188 148.394531 L 61.242188 150.472656 Z M 70.59375 150.472656 " fill-opacity="1" fill-rule="nonzero"/></g><path fill="#2b7a7b" d="M 68.515625 157.746094 L 68.515625 168.136719 L 64.359375 168.136719 L 64.359375 157.746094 Z M 68.515625 157.746094 " fill-opacity="1" fill-rule="nonzero"/><g clip-path="url(#e6a7288560)"><path fill="#2b7a7b" d="M 70.59375 177.488281 L 70.59375 175.410156 L 61.242188 175.410156 L 61.242188 177.488281 C 61.242188 178.527344 61.921875 178.527344 62.28125 178.527344 L 69.554688 178.527344 C 69.914062 178.527344 70.59375 178.527344 70.59375 177.488281 Z M 70.59375 177.488281 " fill-opacity="1" fill-rule="nonzero"/></g><path fill="#2b7a7b" d="M 68.257812 156.707031 L 72.671875 156.707031 C 73.03125 156.707031 73.710938 156.707031 73.710938 155.667969 L 73.710938 152.550781 C 73.710938 151.511719 73.03125 151.511719 72.671875 151.511719 L 60.203125 151.511719 C 59.84375 151.511719 59.164062 151.511719 59.164062 152.550781 L 59.164062 155.667969 C 59.164062 156.707031 59.84375 156.707031 60.203125 156.707031 Z M 68.257812 156.707031 " fill-opacity="1" fill-rule="nonzero"/><path fill="#2b7a7b" d="M 61.761719 174.371094 L 72.671875 174.371094 C 73.03125 174.371094 73.710938 174.371094 73.710938 173.332031 L 73.710938 170.132812 C 73.710938 169.175781 73.03125 169.175781 72.671875 169.175781 L 60.203125 169.175781 C 59.84375 169.175781 59.164062 169.175781 59.164062 170.132812 L 59.164062 173.332031 C 59.164062 174.371094 59.84375 174.371094 60.203125 174.371094 Z M 61.761719 174.371094 " fill-opacity="1" fill-rule="nonzero"/><g clip-path="url(#6b29fa53b0)"><path fill="#2b7a7b" d="M 317.683594 135.128906 L 319.761719 135.128906 C 320.800781 135.128906 320.800781 135.808594 320.800781 136.167969 L 320.800781 143.441406 C 320.800781 143.800781 320.800781 144.480469 319.761719 144.480469 L 317.683594 144.480469 Z M 317.683594 135.128906 " fill-opacity="1" fill-rule="nonzero"/></g><path fill="#2b7a7b" d="M 310.410156 137.207031 L 300.019531 137.207031 L 300.019531 141.363281 L 310.410156 141.363281 Z M 310.410156 137.207031 " fill-opacity="1" fill-rule="nonzero"/><g clip-path="url(#9f323d2a74)"><path fill="#2b7a7b" d="M 290.667969 135.128906 L 292.746094 135.128906 L 292.746094 144.480469 L 290.667969 144.480469 C 289.628906 144.480469 289.628906 143.800781 289.628906 143.441406 L 289.628906 136.167969 C 289.628906 135.808594 289.628906 135.128906 290.667969 135.128906 Z M 290.667969 135.128906 " fill-opacity="1" fill-rule="nonzero"/></g><g clip-path="url(#66789c0156)"><path fill="#2b7a7b" d="M 311.449219 137.464844 L 311.449219 133.050781 C 311.449219 132.691406 311.449219 132.011719 312.488281 132.011719 L 315.605469 132.011719 C 316.644531 132.011719 316.644531 132.691406 316.644531 133.050781 L 316.644531 145.519531 C 316.644531 145.878906 316.644531 146.558594 315.605469 146.558594 L 312.488281 146.558594 C 311.449219 146.558594 311.449219 145.878906 311.449219 145.519531 Z M 311.449219 137.464844 " fill-opacity="1" fill-rule="nonzero"/></g><g clip-path="url(#b7c450eb8d)"><path fill="#2b7a7b" d="M 293.785156 143.960938 L 293.785156 133.050781 C 293.785156 132.691406 293.785156 132.011719 294.824219 132.011719 L 298.023438 132.011719 C 298.980469 132.011719 298.980469 132.691406 298.980469 133.050781 L 298.980469 145.519531 C 298.980469 145.878906 298.980469 146.558594 298.023438 146.558594 L 294.824219 146.558594 C 293.785156 146.558594 293.785156 145.878906 293.785156 145.519531 Z M 293.785156 143.960938 " fill-opacity="1" fill-rule="nonzero"/></g><g clip-path="url(#e3f856cf36)"><path fill="#2b7a7b" d="M 309.332031 175.40625 L 309.332031 177.484375 C 309.332031 178.523438 310.011719 178.523438 310.371094 178.523438 L 317.644531 178.523438 C 318.003906 178.523438 318.683594 178.523438 318.683594 177.484375 L 318.683594 175.40625 Z M 309.332031 175.40625 " fill-opacity="1" fill-rule="nonzero"/></g><path fill="#2b7a7b" d="M 311.410156 168.132812 L 311.410156 157.742188 L 315.566406 157.742188 L 315.566406 168.132812 Z M 311.410156 168.132812 " fill-opacity="1" fill-rule="nonzero"/><g clip-path="url(#927d46e801)"><path fill="#2b7a7b" d="M 309.332031 148.390625 L 309.332031 150.46875 L 318.683594 150.46875 L 318.683594 148.390625 C 318.683594 147.351562 318.003906 147.351562 317.644531 147.351562 L 310.371094 147.351562 C 310.011719 147.351562 309.332031 147.351562 309.332031 148.390625 Z M 309.332031 148.390625 " fill-opacity="1" fill-rule="nonzero"/></g><g clip-path="url(#a5ebcbc102)"><path fill="#2b7a7b" d="M 311.667969 169.171875 L 307.253906 169.171875 C 306.894531 169.171875 306.214844 169.171875 306.214844 170.210938 L 306.214844 173.328125 C 306.214844 174.367188 306.894531 174.367188 307.253906 174.367188 L 319.722656 174.367188 C 320.082031 174.367188 320.761719 174.367188 320.761719 173.328125 L 320.761719 170.210938 C 320.761719 169.171875 320.082031 169.171875 319.722656 169.171875 Z M 311.667969 169.171875 " fill-opacity="1" fill-rule="nonzero"/></g><g clip-path="url(#2bf20bdc1c)"><path fill="#2b7a7b" d="M 318.164062 151.507812 L 307.253906 151.507812 C 306.894531 151.507812 306.214844 151.507812 306.214844 152.546875 L 306.214844 155.75 C 306.214844 156.703125 306.894531 156.703125 307.253906 156.703125 L 319.722656 156.703125 C 320.082031 156.703125 320.761719 156.703125 320.761719 155.75 L 320.761719 152.546875 C 320.761719 151.507812 320.082031 151.507812 319.722656 151.507812 Z M 318.164062 151.507812 " fill-opacity="1" fill-rule="nonzero"/></g><g clip-path="url(#a538444201)"><path fill="#2b7a7b" d="M 292.746094 225.644531 L 290.667969 225.644531 C 289.628906 225.644531 289.628906 224.964844 289.628906 224.605469 L 289.628906 217.332031 C 289.628906 216.972656 289.628906 216.292969 290.667969 216.292969 L 292.746094 216.292969 Z M 292.746094 225.644531 " fill-opacity="1" fill-rule="nonzero"/></g><path fill="#2b7a7b" d="M 300.019531 223.566406 L 310.410156 223.566406 L 310.410156 219.410156 L 300.019531 219.410156 Z M 300.019531 223.566406 " fill-opacity="1" fill-rule="nonzero"/><g clip-path="url(#08c1b59797)"><path fill="#2b7a7b" d="M 319.761719 225.644531 L 317.683594 225.644531 L 317.683594 216.292969 L 319.761719 216.292969 C 320.800781 216.292969 320.800781 216.972656 320.800781 217.332031 L 320.800781 224.605469 C 320.800781 224.964844 320.800781 225.644531 319.761719 225.644531 Z M 319.761719 225.644531 " fill-opacity="1" fill-rule="nonzero"/></g><path fill="#2b7a7b" d="M 298.980469 223.304688 L 298.980469 227.722656 C 298.980469 228.082031 298.980469 228.761719 297.941406 228.761719 L 294.824219 228.761719 C 293.785156 228.761719 293.785156 228.082031 293.785156 227.722656 L 293.785156 215.253906 C 293.785156 214.894531 293.785156 214.214844 294.824219 214.214844 L 297.941406 214.214844 C 298.980469 214.214844 298.980469 214.894531 298.980469 215.253906 Z M 298.980469 223.304688 " fill-opacity="1" fill-rule="nonzero"/><path fill="#2b7a7b" d="M 316.644531 216.8125 L 316.644531 227.722656 C 316.644531 228.082031 316.644531 228.761719 315.605469 228.761719 L 312.402344 228.761719 C 311.449219 228.761719 311.449219 228.082031 311.449219 227.722656 L 311.449219 215.253906 C 311.449219 214.894531 311.449219 214.214844 312.402344 214.214844 L 315.605469 214.214844 C 316.644531 214.214844 316.644531 214.894531 316.644531 215.253906 Z M 316.644531 216.8125 " fill-opacity="1" fill-rule="nonzero"/><g clip-path="url(#3779b5d8ff)"><path fill="#2b7a7b" d="M 309.332031 210.300781 L 309.332031 212.378906 C 309.332031 213.417969 310.011719 213.417969 310.371094 213.417969 L 317.644531 213.417969 C 318.003906 213.417969 318.683594 213.417969 318.683594 212.378906 L 318.683594 210.300781 Z M 309.332031 210.300781 " fill-opacity="1" fill-rule="nonzero"/></g><path fill="#2b7a7b" d="M 311.410156 203.027344 L 311.410156 192.636719 L 315.566406 192.636719 L 315.566406 203.027344 Z M 311.410156 203.027344 " fill-opacity="1" fill-rule="nonzero"/><path fill="#2b7a7b" d="M 309.332031 183.285156 L 309.332031 185.363281 L 318.683594 185.363281 L 318.683594 183.285156 C 318.683594 182.246094 318.003906 182.246094 317.644531 182.246094 L 310.371094 182.246094 C 310.011719 182.246094 309.332031 182.246094 309.332031 183.285156 Z M 309.332031 183.285156 " fill-opacity="1" fill-rule="nonzero"/><g clip-path="url(#b79b5245ab)"><path fill="#2b7a7b" d="M 311.667969 204.066406 L 307.253906 204.066406 C 306.894531 204.066406 306.214844 204.066406 306.214844 205.105469 L 306.214844 208.222656 C 306.214844 209.261719 306.894531 209.261719 307.253906 209.261719 L 319.722656 209.261719 C 320.082031 209.261719 320.761719 209.261719 320.761719 208.222656 L 320.761719 205.105469 C 320.761719 204.066406 320.082031 204.066406 319.722656 204.066406 Z M 311.667969 204.066406 " fill-opacity="1" fill-rule="nonzero"/></g><g clip-path="url(#42d51c652f)"><path fill="#2b7a7b" d="M 318.164062 186.402344 L 307.253906 186.402344 C 306.894531 186.402344 306.214844 186.402344 306.214844 187.441406 L 306.214844 190.644531 C 306.214844 191.597656 306.894531 191.597656 307.253906 191.597656 L 319.722656 191.597656 C 320.082031 191.597656 320.761719 191.597656 320.761719 190.644531 L 320.761719 187.441406 C 320.761719 186.402344 320.082031 186.402344 319.722656 186.402344 Z M 318.164062 186.402344 " fill-opacity="1" fill-rule="nonzero"/></g></svg>